<svg width="108" height="74" viewBox="0 0 108 74" fill="none" xmlns="http://www.w3.org/2000/svg">
<path d="M9 52.5561H17.091L34.335 64.4784C34.7873 64.79 35.3125 64.9689 35.8548 64.9963C36.3972 65.0237 36.9366 64.8985 37.416 64.634C37.8948 64.3681 38.2951 63.9725 38.574 63.4892C38.853 63.0059 39.0002 62.4531 39 61.8899V12.1097C38.9997 11.5469 38.8523 10.9947 38.5733 10.512C38.2944 10.0292 37.8944 9.63401 37.416 9.36838C36.9376 9.10275 36.3987 8.97666 35.8566 9.00355C35.3146 9.03045 34.7898 9.20931 34.338 9.52109L17.091 21.4434H9C5.691 21.4434 3 24.2343 3 27.666V46.3336C3 49.7653 5.691 52.5561 9 52.5561ZM9 27.666H18C18.099 27.666 18.183 27.6162 18.279 27.6069C18.677 27.5643 19.0632 27.4417 19.416 27.246C19.494 27.2024 19.587 27.1931 19.662 27.1433L33 17.9215V56.078L19.665 46.8562C19.59 46.8002 19.497 46.794 19.419 46.7536C19.065 46.5528 18.6749 46.4299 18.273 46.3927C18.177 46.3833 18.096 46.3336 18 46.3336H9V27.666Z" fill="white"/>
<line y1="-1.5" x2="18" y2="-1.5" transform="matrix(0 -1 -1 0 45 46)" stroke="white" stroke-width="3"/>
</svg>
