<svg height="24" viewBox="0 0 24 24" width="24" xmlns="http://www.w3.org/2000/svg"><path d="m6.58900253 18.0753965c-.03169333-.19016-.04762126-.3826135-.04762126-.5753965 0-1.9329966 1.56700337-3.5 3.50000003-3.5h2.4586187c.2761424 0 .5.2238576.5.5v3.2267988c0 .0759328.0270017.1493913.0761794.2072475.1144596.1346584.3164097.1510327.4510681.0365731l7.0354097-5.9800983c.053454-.0454359.1031423-.0951242.1485782-.1485782.4649923-.5470497.3984715-1.3674718-.1485782-1.832464l-7.0354097-5.98009829c-.0578562-.04917776-.1313147-.07617942-.2072475-.07617942-.1767311 0-.32.14326888-.32.32v3.22679881c0 .27614237-.2238576.5-.5.5h-3c-3.58985087 0-6.5 2.9101491-6.5 6.5 0 2.8494045 1.26637093 4.5973664 3.88288761 5.3387069zm3.45237877-3.0753965c-1.38071191 0-2.50000003 1.1192881-2.50000003 2.5 0 .1377022.01137709.2751689.03401519.4109975l.4178005 2.506803c.05747944.3448767-.2476983.640746-.59062962.5726145-3.56583507-.7084383-5.40256734-2.9125171-5.40256734-6.490415 0-4.1421356 3.35786438-7.5 7.5-7.5h2.5v-2.72679881c0-.72901587.5909841-1.32 1.32-1.32.3132228 0 .6162392.11138186.8548959.3142401l7.0354098 5.98009828c.9678571.82267863 1.0855476 2.27419463.262869 3.24205183-.0803865.0945724-.1682966.1824825-.262869.262869l-7.0354098 5.9800983c-.5554658.472146-1.3885098.4046019-1.8606558-.150864-.2028582-.2386567-.3142401-.5416731-.3142401-.8548959v-2.7267988z"/></svg>