<?xml version="1.0" encoding="UTF-8"?>
<svg xmlns="http://www.w3.org/2000/svg" id="a" width="865.76" height="682.89" viewBox="0 0 865.76 682.89">
  <g>
    <path d="M200.87,208.65s-74.55,86.5-74.55,92.46,9.21,52,23.84,56.35c14.63,4.35,22.76-3.24,25.47-18.41s-6.51-36.85-6.51-36.85l32.24-29.53-.49-64.02Z" fill="#fbe493"></path>
    <path d="M157.75,359.18c-2.38,0-4.96-.41-7.73-1.23-14.72-4.38-24.2-50.42-24.2-56.83,0-5.97,67.03-83.92,74.67-92.79l.87-1.01,.5,65.57-.16,.15-31.98,29.29c1.14,2.79,8.93,22.68,6.41,36.81-1.56,8.74-4.85,14.71-9.76,17.74-2.48,1.53-5.36,2.29-8.61,2.29Zm42.63-149.19c-29.9,34.73-73.56,86.93-73.56,91.12,0,6.32,9.2,51.62,23.48,55.87,6.26,1.86,11.49,1.54,15.53-.95,4.67-2.88,7.8-8.62,9.31-17.07,2.65-14.85-6.39-36.35-6.48-36.57l-.14-.33,32.34-29.62-.48-62.47Z" fill="#002346"></path>
  </g>
  <g>
    <polygon points="298.4 621.67 298.62 626.04 306.44 627.99 315.23 630.92 313.28 619.19 298.4 621.67" fill="#f2b3c1"></polygon>
    <path d="M315.86,631.66l-9.58-3.19-8.14-2.03-.26-5.18,15.81-2.64,2.17,13.04Zm-16.76-6.01l7.46,1.86,8.04,2.68-1.73-10.42-13.95,2.33,.18,3.55Z" fill="#002346"></path>
  </g>
  <g>
    <polygon points="225.06 620.22 225.3 608.44 243.39 608.93 243.88 623.1 225.06 620.22" fill="#f2b3c1"></polygon>
    <path d="M244.4,623.69l-19.85-3.04,.26-12.72,19.06,.52,.53,15.24Zm-18.83-3.89l17.79,2.72-.45-13.1-17.12-.46-.22,10.84Z" fill="#002346"></path>
  </g>
  <g>
    <path d="M207.22,362.6s.49,75.76,5.38,121.7c0,0-2.93,98.73,7.82,130h33.23s-3.91-85-1.95-102.64c0,0,2.93-65.49,10.75-90.91,0,0,20.53,88,23.46,133.92l5.86,68.42,33.21-5.85s-5.87-121.21-8.8-156.4c0,0-7.4-82.95-9.28-102.15l-22-4.4-58.65,4.89-19.03,3.42Z" fill="#fbe493"></path>
    <path d="M291.31,623.68l-5.91-68.96c-2.66-41.68-20.05-119.01-23.02-131.99-7.32,26.26-10.16,88.32-10.19,88.95-1.94,17.43,1.91,101.75,1.95,102.59l.02,.52h-34.11l-.12-.34c-10.66-31-7.88-129.19-7.85-130.18-4.83-45.37-5.38-120.92-5.38-121.68v-.42s19.44-3.49,19.44-3.49l58.77-4.9h.07s22.36,4.49,22.36,4.49l.04,.37c1.86,18.98,9.21,101.33,9.28,102.16,2.9,34.8,8.74,155.21,8.8,156.42l.02,.44-34.18,6.02Zm-28.8-204.84l.42,1.8c.21,.88,20.57,88.57,23.47,134l5.81,67.87,32.24-5.68c-.39-8.05-5.97-122.23-8.78-155.94-.07-.82-7.33-82.12-9.24-101.77l-21.57-4.31-58.58,4.88-18.57,3.34c.05,6.16,.73,77.6,5.37,121.23-.03,1.05-2.78,98.36,7.68,129.55h32.35c-.32-7.19-3.79-85.44-1.92-102.2,.03-.62,3.02-65.81,10.77-91l.54-1.77Z" fill="#002346"></path>
  </g>
  <g>
    <path d="M204.29,209.14l30.79-5.38,2-5.87c1-4.88,3.28-3.91,3.28-3.91l30,2,6.84,7.82,46.92,8.8,26.39,38.12c-11.73,22.48-37.14,18.57-37.14,18.57l-11.73-25.41-28.35,26.39-73.31-15.64" fill="#fbe493"></path>
    <path d="M273.44,270.82l-.25-.05-73.31-15.64,.21-.98,73.06,15.59,28.67-26.68,11.9,25.78c2.7,.32,25.37,2.32,36.22-18.07l-26.1-37.7-46.89-8.79-6.82-7.79-29.96-2.03s-.39-.14-.86,.12c-.53,.29-1.27,1.13-1.74,3.43l-2.11,6.21-31.08,5.43-.17-.98,30.5-5.33,1.9-5.59c.43-2.12,1.2-3.51,2.26-4.07,.73-.38,1.36-.25,1.59-.17l30.14,2.01,6.86,7.85,46.95,8.81,26.68,38.54-.14,.27c-11.76,22.54-37.4,18.87-37.66,18.83l-.27-.04-.11-.24-11.44-24.78-28.04,26.1Z" fill="#002346"></path>
  </g>
  <g>
    <path d="M209.18,347.94l-17.11-130.5s-.8-6.42,4.87-9.08c1-.44,2.06-.72,3.15-.81l35-4.77,26.39,55.72,15.64-54.74s23.33,1,32.73,1.93c3.09,.31,5.49,2.84,5.64,5.94l-10.51,134.37" fill="#f69074"></path>
    <path d="M208.68,348.01l-17.11-130.5c0-.07-.78-6.82,5.15-9.6,1.06-.47,2.17-.76,3.32-.85l35.34-4.82,.16,.33,25.82,54.52,15.38-53.84,.39,.02c.23,.01,23.45,1.01,32.76,1.93,3.36,.34,5.92,3.04,6.09,6.41l-10.51,134.43-1-.08,10.51-134.37c-.14-2.81-2.33-5.11-5.19-5.4-8.61-.85-29.2-1.77-32.31-1.91l-15.9,55.64-26.8-56.59-34.64,4.72c-1.06,.09-2.07,.35-3.01,.77-5.27,2.47-4.58,8.5-4.58,8.56l17.11,130.5-.99,.13Z" fill="#002346"></path>
  </g>
  <g>
    <path d="M354.33,646.56s-18.57,2-30.3-1.95c0,0-24.44-7.82-31.28-6.84,0,0,0-16.62,6.84-13.69,0,0,6.85,4.89,12.71-2,0,0,6.84-8.8,13.69,1,0,0,5.86,12.71,17.59,15.64,11.73,2.93,10.75,7.84,10.75,7.84Z" fill="#f69074"></path>
    <path d="M343.5,647.56c-6.15,0-13.77-.5-19.64-2.47-.24-.08-24.4-7.77-31.05-6.82l-.57,.08v-.58c0-.46,.04-11.4,3.96-13.97,1.04-.69,2.25-.75,3.58-.18l.09,.05c.26,.19,6.55,4.54,12.04-1.92,.11-.14,3.09-3.91,7.2-3.8,2.63,.07,5.08,1.7,7.28,4.84,.1,.2,5.95,12.6,17.3,15.44,12.05,3.01,11.16,8.2,11.12,8.42l-.07,.36-.36,.04c-.09,0-4.77,.5-10.88,.5Zm-49.38-10.37c8.24,0,29.12,6.65,30.06,6.95,10.5,3.54,26.78,2.24,29.66,1.97-.1-1.12-1.19-4.61-10.38-6.9-11.83-2.96-17.86-15.79-17.92-15.92-1.96-2.79-4.14-4.28-6.43-4.34-3.64-.11-6.38,3.4-6.41,3.44-5.83,6.86-12.68,2.57-13.34,2.13-1-.42-1.85-.38-2.59,.11-3.01,1.98-3.44,10.34-3.5,12.58,.27-.02,.56-.03,.87-.03Z" fill="#002346"></path>
  </g>
  <g>
    <path d="M353.36,651.45h-15.64c-21.51,0-24.44-2.93-24.44-2.93-6.84-4.89-6.84,1-6.84,1l-14.67-1c.14-3.6,.48-7.19,1-10.75,6.84-1,31.28,6.84,31.28,6.84,11.73,3.91,30.3,1.95,30.3,1.95,.96,3.91-.99,4.89-.99,4.89Z" fill="#002346"></path>
    <path d="M353.47,651.95h-15.76c-21.47,0-24.67-2.95-24.79-3.08-2.77-1.97-4.2-1.97-4.9-1.61-1.06,.54-1.09,2.24-1.09,2.26v.54l-15.69-1.07,.02-.49c.14-3.6,.48-7.24,1-10.8l.05-.37,.37-.05c6.88-1,30.5,6.54,31.5,6.86,11.5,3.83,29.91,1.95,30.1,1.93l.43-.05,.1,.42c1.04,4.25-1.16,5.41-1.25,5.46l-.11,.05Zm-44.63-5.87c1.25,0,2.83,.68,4.73,2.03,.08,.07,3.44,2.84,24.15,2.84h15.49c.31-.23,1.28-1.18,.74-3.85-2.9,.26-19.38,1.55-30.07-2.01-.23-.08-23.56-7.51-30.68-6.86-.46,3.25-.77,6.55-.92,9.83l13.69,.93c.1-.73,.44-2.03,1.59-2.62,.38-.19,.8-.29,1.27-.29Z" fill="#002346"></path>
  </g>
  <g>
    <path d="M250.49,637.68c-.14,1.75-1.49,3.17-3.23,3.41-8.68,1.11-17.49,.84-26.09-.78-1.5-.3-2.67-1.49-2.93-3-.1-.6-.05-1.22,.16-1.8,1.19-2.78,2.88-5.32,5-7.49,0,0,0-15.64,12.71-12.71,0,0,11.73,1,10.75,16.62,1.6,1.11,2.83,2.68,3.53,4.5,.1,.41,.14,.83,.1,1.25Z" fill="#f69074"></path>
    <path d="M236.67,642.27c-5.22,0-10.44-.49-15.6-1.46-1.7-.33-3.04-1.7-3.33-3.41-.11-.69-.05-1.4,.18-2.05,1.2-2.82,2.87-5.34,4.97-7.53,.03-1.3,.41-8.15,4.65-11.53,2.24-1.78,5.15-2.27,8.67-1.46h0c.06,0,11.99,1.2,11.15,16.86,1.58,1.16,2.78,2.73,3.48,4.57,.13,.52,.17,1,.13,1.47-.17,2-1.67,3.59-3.66,3.86-3.54,.45-7.1,.68-10.65,.68Zm-3.55-26.81c-1.95,0-3.6,.54-4.95,1.62-4.23,3.37-4.28,10.88-4.28,10.95v.2l-.14,.15c-2.08,2.13-3.73,4.6-4.9,7.34-.17,.47-.21,1-.13,1.52,.22,1.29,1.24,2.34,2.53,2.59,8.56,1.62,17.28,1.88,25.93,.77,1.52-.21,2.67-1.42,2.79-2.96h0c.03-.37,0-.73-.09-1.09-.65-1.68-1.81-3.15-3.33-4.21l-.23-.16,.02-.28c.94-14.92-9.84-16.05-10.29-16.09-1.04-.24-2.02-.36-2.94-.36Z" fill="#002346"></path>
  </g>
  <g>
    <path d="M251.48,643.72c-.19,2.39-1.95,4.35-4.31,4.79-8.77,1.56-22.5-.62-27.65-1.56-1.46-.25-2.57-1.45-2.69-2.93-.04-2.32,.44-4.63,1.41-6.74,.26,1.51,1.43,2.7,2.93,3,8.6,1.62,17.41,1.89,26.09,.78,1.74-.24,3.09-1.66,3.23-3.41,.87,1.9,1.22,3.99,.99,6.07Z" fill="#002346"></path>
    <path d="M239.83,649.56c-7.76,0-16.36-1.38-20.41-2.12-1.68-.29-2.95-1.68-3.1-3.38-.04-2.42,.46-4.82,1.45-6.99l.67-1.47,.27,1.59c.22,1.3,1.24,2.34,2.53,2.59,8.56,1.61,17.28,1.88,25.93,.77,1.52-.21,2.67-1.42,2.79-2.96l.16-1.9,.8,1.73c.91,1.98,1.27,4.16,1.03,6.33-.21,2.61-2.15,4.76-4.72,5.23-2.24,.4-4.78,.56-7.42,.56Zm-21.63-10.88c-.61,1.71-.91,3.53-.88,5.33,.1,1.21,1.04,2.23,2.27,2.44,5.38,.98,18.82,3.1,27.48,1.56,2.13-.39,3.73-2.18,3.9-4.34h0c.16-1.51,.02-3.02-.42-4.44-.61,1.23-1.79,2.12-3.23,2.32-8.75,1.12-17.59,.85-26.25-.78-1.23-.24-2.27-1.03-2.87-2.09Z" fill="#002346"></path>
  </g>
  <g>
    <path d="M270.27,185.19v10.75l-13.68,13.68-16.27-15.62v-9.7h.33c3.77,5.41,8.86,10.69,14.47,10.69,5.95,0,11.34-3.78,15.15-9.8Z" fill="#f2b3c1"></path>
    <path d="M256.59,210.32l-16.78-16.11v-10.41h1.09l.15,.21c4.84,6.95,9.57,10.48,14.06,10.48h.02c5.5,0,10.86-3.49,14.71-9.57l.92-1.46v12.68l-14.17,14.17Zm-15.78-16.53l15.76,15.13,13.19-13.19v-8.9c-3.95,5.53-9.21,8.66-14.63,8.66h-.02c-4.65,0-9.45-3.39-14.3-10.09v8.38Z" fill="#002346"></path>
  </g>
  <g>
    <path d="M276.17,153.22v20c0,12.15-9.85,22-22,22s-22-9.85-22-22v-20c0-.77,.04-1.54,.11-2.29,1.15-11.07,10.51-19.71,21.89-19.71,6.08,0,11.58,2.46,15.56,6.44,3.53,3.53,5.87,8.26,6.35,13.53,.06,.67,.09,1.34,.09,2.03Z" fill="#f2b3c1"></path>
    <path d="M254.17,195.72c-12.41,0-22.5-10.09-22.5-22.5v-20c0-.75,.04-1.54,.11-2.34,1.19-11.5,10.82-20.16,22.39-20.16,6.02,0,11.67,2.34,15.91,6.59,3.71,3.71,6.02,8.63,6.49,13.84,.06,.69,.09,1.37,.09,2.08v20c0,12.41-10.09,22.5-22.5,22.5Zm0-64c-11.06,0-20.25,8.28-21.39,19.26-.07,.76-.11,1.52-.11,2.24v20c0,11.86,9.65,21.5,21.5,21.5s21.5-9.64,21.5-21.5v-20c0-.67-.03-1.32-.09-1.99-.45-4.98-2.66-9.67-6.21-13.22-4.06-4.06-9.46-6.29-15.21-6.29Z" fill="#002346"></path>
  </g>
  <g>
    <path d="M277.28,151s11.91-2.9,14.16-14.82c2.25-11.92-19.22-26.4-34.1-29-14.88-2.6-36.7,12.88-40.24,23.51-3.54,10.63,10.29,21.24,25.1,23.5,14.81,2.26,35.08-3.19,35.08-3.19Z" fill="#002346"></path>
    <path d="M250.11,155.24c-2.74,0-5.45-.16-7.99-.55-10.29-1.57-19.94-7.09-24-13.73-2.1-3.44-2.62-7.04-1.5-10.42,3.49-10.49,25.4-26.55,40.8-23.84,11.49,2.01,25.64,10.59,31.55,19.13,2.57,3.71,3.56,7.23,2.95,10.46-2.26,11.97-14.16,15.12-14.53,15.21-.31,.08-14.2,3.75-27.29,3.75Zm3.65-47.85c-14.6,0-33.04,14.04-36.18,23.47-1.04,3.13-.57,6.36,1.4,9.58,3.92,6.4,13.28,11.73,23.3,13.26,14.53,2.22,34.67-3.12,34.87-3.18h.01c.12-.03,11.63-2.98,13.79-14.43,.56-2.96-.38-6.22-2.79-9.7-5.78-8.35-19.65-16.75-30.9-18.71-1.13-.2-2.3-.29-3.49-.29Z" fill="#002346"></path>
  </g>
  <g>
    <path d="M232.28,150.93c-.07,.75-.11,1.52-.11,2.29v10.54c-3.21-.89-7.72-4.77-6.37-12.05,1.1-5.96,4.47-3.14,6.48-.78Z" fill="#f2b3c1"></path>
    <path d="M232.67,164.41l-.63-.18c-3.47-.96-8.12-5.12-6.73-12.62,.42-2.3,1.21-3.57,2.4-3.89,1.35-.36,3.01,.61,4.95,2.88l.14,.16-.02,.21c-.07,.77-.11,1.52-.11,2.24v11.2Zm-4.39-15.76c-.11,0-.21,.01-.31,.04-.76,.2-1.34,1.28-1.68,3.11-1.19,6.39,2.37,10.1,5.38,11.27v-9.85c0-.69,.03-1.4,.09-2.12-1.39-1.59-2.6-2.44-3.48-2.44Z" fill="#002346"></path>
  </g>
  <g>
    <path d="M276.17,163.82v-10.6c0-.69-.03-1.36-.09-2.03,1.98-2.4,5.56-5.66,6.7,.52,1.38,7.48-3.36,11.38-6.61,12.11Z" fill="#f2b3c1"></path>
    <path d="M275.67,164.44v-11.22c0-.67-.03-1.32-.09-1.99l-.02-.21,.13-.16c2.02-2.45,3.76-3.51,5.16-3.15,1.2,.31,1.99,1.59,2.42,3.9,1.44,7.78-3.53,11.91-6.99,12.69l-.61,.14Zm.93-13.09c.05,.62,.07,1.24,.07,1.87v9.94c3.04-1.02,6.84-4.72,5.62-11.36-.34-1.84-.92-2.91-1.69-3.11-.93-.24-2.38,.73-4.01,2.66Z" fill="#002346"></path>
  </g>
  <path d="M231.83,152.35s.23,6.48,2.39,4.79c2.16-1.69,2.87-12.68,1-14.12s-3.39,5.98-3.39,9.33Z" fill="#002346"></path>
  <path d="M272.41,151.38s.25,6.47,2.39,4.79,2.89-12.69,1-14.12c-1.89-1.43-3.39,5.95-3.39,9.33Z" fill="#002346"></path>
  <g>
    <path d="M230.85,146.11s.72,.59,.71,.88c3.12,1.69,10.29,4.79,21.93,5.41,8.26,.29,16.43-1.71,23.62-5.78v-1.39c-.28-7.54-5.89-12.57-12.82-14.49-6.81-1.89-14.05-1.54-20.65,1-3.35,1.26-6.3,3.39-8.56,6.16-.86,.97-5.41,7.27-4.23,8.21Z" fill="#f69074"></path>
    <path d="M255.07,152.93c-.53,0-1.06,0-1.6-.03-11.63-.62-18.87-3.69-22.15-5.47l-.27-.15v-.31s-.28-.28-.52-.48c-.15-.12-.34-.35-.37-.76-.18-2.07,4.16-7.74,4.54-8.17,2.3-2.82,5.33-5,8.76-6.3,6.65-2.56,14.09-2.92,20.96-1.01,7.87,2.18,12.92,7.91,13.19,14.95v1.7s-.25,.14-.25,.14c-6.81,3.86-14.48,5.87-22.29,5.87Zm-23.09-6.28c3.29,1.75,10.32,4.66,21.54,5.25,8.07,.28,16.04-1.64,23.09-5.57v-1.1c-.25-6.67-4.9-11.92-12.45-14.01-6.66-1.84-13.88-1.5-20.34,.99-3.26,1.23-6.15,3.31-8.35,6.01-1.35,1.52-4.72,6.68-4.3,7.51,.41,.34,.68,.65,.81,.92Zm-.81-.92h0s0,0,0,0h0Z" fill="#002346"></path>
  </g>
  <g>
    <path d="M231.59,146.53c7.19,1.59,14.58,2.13,21.93,1.61,13.86-.65,23.49-1.61,23.49-1.61-6.36,5.97-14.58,9.58-23.28,10.23-8.64,.56-16.97-3.29-22.14-10.23Z" fill="#f69074"></path>
    <path d="M252.05,157.32c-8.21,0-15.91-3.84-20.86-10.49l-.8-1.08,1.31,.29c7.15,1.58,14.48,2.12,21.79,1.6,13.7-.64,23.38-1.6,23.48-1.61l1.47-.15-1.07,1.01c-6.42,6.03-14.8,9.71-23.59,10.37-.57,.04-1.15,.06-1.72,.06Zm-19.22-10.01c5.12,6.15,12.82,9.48,20.86,8.96,8.05-.6,15.76-3.82,21.86-9.09-3.24,.29-11.43,.98-22.01,1.47-6.93,.49-13.89,.04-20.71-1.33Z" fill="#002346"></path>
  </g>
  <g>
    <polygon points="204.83 235.53 207.08 251.66 224.51 255.84 242.24 248.75 240.96 234.23 204.83 235.53" fill="#fbe493"></polygon>
    <path d="M224.54,256.37l-17.92-4.3-2.37-17.02,37.16-1.34,1.35,15.36-18.22,7.29Zm-17.02-5.11l16.94,4.06,17.24-6.89-1.21-13.68-35.1,1.26,2.13,15.24Z" fill="#002346"></path>
  </g>
  <g>
    <circle cx="223.38" cy="248.59" r="3.07" fill="#fff"></circle>
    <path d="M223.38,252.16c-1.97,0-3.57-1.6-3.57-3.57s1.6-3.57,3.57-3.57,3.57,1.6,3.57,3.57-1.6,3.57-3.57,3.57Zm0-6.14c-1.42,0-2.57,1.15-2.57,2.57s1.15,2.57,2.57,2.57,2.57-1.15,2.57-2.57-1.15-2.57-2.57-2.57Z" fill="#002346"></path>
  </g>
  <g>
    <polygon points="270.33 238.46 272.57 254.59 290 258.77 307.73 251.69 306.45 237.16 270.33 238.46" fill="#fbe493"></polygon>
    <path d="M290.03,259.3l-17.92-4.3-2.36-17.02,37.15-1.34,1.35,15.37-18.22,7.28Zm-17.02-5.11l16.94,4.06,17.24-6.88-1.21-13.69-35.09,1.26,2.12,15.24Z" fill="#002346"></path>
  </g>
  <g>
    <circle cx="288.87" cy="251.52" r="3.07" fill="#fff"></circle>
    <path d="M288.87,255.09c-1.97,0-3.57-1.6-3.57-3.57s1.6-3.57,3.57-3.57,3.57,1.6,3.57,3.57-1.6,3.57-3.57,3.57Zm0-6.14c-1.42,0-2.57,1.15-2.57,2.57s1.15,2.57,2.57,2.57,2.57-1.15,2.57-2.57-1.15-2.57-2.57-2.57Z" fill="#002346"></path>
  </g>
  <g>
    <path d="M172.98,336.88s16.8-2.72,21.14-1.64c4.34,1.08,7.58,11.39,7.58,11.39,0,0,1.63,15.18-1.1,18.42-2.73,3.24-15.71,7-21.11,8.13-5.4,1.13-16.82-11.37-21.24-19-4.42-7.63,3.36-20.56,14.73-17.3Z" fill="#f2b3c1"></path>
    <path d="M178.77,373.75c-6.08,0-16.81-12.17-20.95-19.32-2.27-3.91-1.59-9.35,1.67-13.54,3.33-4.27,8.38-5.96,13.52-4.52,1.59-.25,16.98-2.67,21.23-1.62,4.56,1.13,7.8,11.29,7.94,11.73,.09,.72,1.64,15.53-1.19,18.89-2.98,3.54-16.72,7.32-21.39,8.3-.26,.05-.54,.08-.82,.08Zm-9.33-36.88c-3.54,0-6.82,1.62-9.17,4.63-3.02,3.87-3.66,8.86-1.59,12.42,4.71,8.13,15.87,19.79,20.71,18.76,6.15-1.29,18.37-5.05,20.83-7.96,2.13-2.52,1.43-13.88,.99-18.04-.01,0-3.19-9.96-7.2-10.96-4.19-1.05-20.77,1.62-20.94,1.65l-.11,.02-.11-.03c-1.14-.33-2.28-.49-3.4-.49Z" fill="#002346"></path>
  </g>
  <g>
    <rect x="201.72" y="340.67" width="117.04" height="18.42" fill="#fff"></rect>
    <path d="M319.26,359.59h-118.04v-19.42h118.04v19.42Zm-117.04-1h116.04v-17.42h-116.04v17.42Z" fill="#002346"></path>
  </g>
  <g>
    <rect x="193.6" y="341.75" width="35.77" height="22.76" rx="5.15" ry="5.15" fill="#f69074"></rect>
    <path d="M224.22,365.01h-25.47c-3.12,0-5.65-2.54-5.65-5.65v-12.46c0-3.12,2.53-5.65,5.65-5.65h25.47c3.12,0,5.65,2.54,5.65,5.65v12.46c0,3.12-2.53,5.65-5.65,5.65Zm-25.47-22.76c-2.56,0-4.65,2.09-4.65,4.65v12.46c0,2.56,2.09,4.65,4.65,4.65h25.47c2.56,0,4.65-2.09,4.65-4.65v-12.46c0-2.56-2.09-4.65-4.65-4.65h-25.47Z" fill="#002346"></path>
  </g>
  <g>
    <rect x="286.8" y="341.75" width="35.77" height="22.76" rx="5.15" ry="5.15" fill="#f69074"></rect>
    <path d="M317.42,365.01h-25.47c-3.12,0-5.65-2.54-5.65-5.65v-12.46c0-3.12,2.53-5.65,5.65-5.65h25.47c3.12,0,5.65,2.54,5.65,5.65v12.46c0,3.12-2.53,5.65-5.65,5.65Zm-25.47-22.76c-2.56,0-4.65,2.09-4.65,4.65v12.46c0,2.56,2.09,4.65,4.65,4.65h25.47c2.56,0,4.65-2.09,4.65-4.65v-12.46c0-2.56-2.09-4.65-4.65-4.65h-25.47Z" fill="#002346"></path>
  </g>
  <g>
    <rect x="249.41" y="341.75" width="25.46" height="16.25" fill="#e6e7e8"></rect>
    <path d="M275.37,358.5h-26.46v-17.25h26.46v17.25Zm-25.46-1h24.46v-15.25h-24.46v15.25Z" fill="#002346"></path>
  </g>
  <g>
    <rect x="204.78" y="203.75" width="24.44" height="3.91" transform="translate(-26.61 32.33) rotate(-8.03)" fill="#fbe493"></rect>
    <path d="M204.75,209.91l-.69-4.86,25.19-3.55,.69,4.86-25.19,3.55Zm.44-4.01l.41,2.88,23.21-3.27-.41-2.88-23.21,3.27Z" fill="#002346"></path>
  </g>
  <g>
    <rect x="290.29" y="191.55" width="3.91" height="24.44" transform="translate(77.41 487.98) rotate(-87.8)" fill="#fbe493"></rect>
    <path d="M304.87,206.71l-25.42-.98,.19-4.91,25.42,.98-.19,4.91Zm-24.38-1.94l23.42,.9,.11-2.91-23.42-.9-.11,2.91Z" fill="#002346"></path>
  </g>
  <g>
    <path d="M309.31,241.31c1.28,.65,2.18,1.87,2.43,3.29,1.56,9.47,7.89,41.24,22.07,35.4,0,0,14.66-5.86,10.75-15.64l-15.64-26.36s2.93-1,2.93-11.73v-28.84c0-1.48-.19-2.96-.66-4.37-.75-2.25-2.28-4.72-5.2-2.96,0,0-1-13.68-6.85-10.75,0,0,0-5.86-3.91-5.86,0,0-1.95,0-1.95,4.88,0,0-5.87-2.93-5.87,6.85l-1,17.59s-3.91-2.93-6.85-1.95l.82,24.5c.11,3.73,1.27,7.34,3.36,10.43,1.42,2.24,3.32,4.12,5.57,5.52Z" fill="#f2b3c1"></path>
    <path d="M330.43,281.21c-1.42,0-2.8-.37-4.13-1.11-9.17-5.11-13.59-26.47-15.06-35.42-.22-1.25-1.03-2.35-2.16-2.93l-.04-.02c-2.3-1.43-4.28-3.39-5.73-5.68-2.14-3.16-3.33-6.86-3.44-10.68l-.83-24.87,.35-.12c2.38-.79,5.23,.69,6.56,1.52l.95-16.71c0-3.72,.85-6.15,2.53-7.19,1.23-.76,2.56-.57,3.35-.34,.19-4.53,2.2-4.67,2.44-4.67,3.13,0,4.19,3.35,4.38,5.63,.95-.3,1.83-.22,2.65,.24,2.97,1.69,3.92,8.22,4.16,10.46,.86-.37,1.67-.41,2.41-.14,1.2,.44,2.15,1.7,2.83,3.72,.46,1.37,.69,2.89,.69,4.53v28.84c0,8.48-1.82,11.1-2.76,11.89l15.4,25.95c1.72,4.29,.32,8.46-4.02,12.12-3.2,2.71-6.83,4.17-6.98,4.23-1.21,.5-2.4,.75-3.56,.75Zm-20.88-40.34c1.4,.72,2.4,2.08,2.68,3.64,1.13,6.87,5.52,29.68,14.56,34.71,2.17,1.21,4.4,1.31,6.83,.31,.15-.06,14.15-5.79,10.48-14.99l-15.92-26.82,.58-.2s2.59-1.23,2.59-11.26v-28.84c0-1.53-.21-2.95-.64-4.21-.4-1.19-1.11-2.69-2.23-3.1-.64-.23-1.39-.09-2.23,.41l-.7,.42-.06-.81c-.18-2.41-1.19-8.97-3.73-10.41-.71-.4-1.49-.38-2.4,.07l-.72,.36v-.81c0-.05-.05-5.36-3.41-5.36,0,0-1.45,.17-1.45,4.38v.8l-.72-.35s-1.71-.82-3.09,.04c-1.34,.84-2.05,3.04-2.05,6.37l-1.05,18.55-.75-.56s-3.42-2.52-6.04-1.97l.81,24.11c.1,3.64,1.24,7.15,3.27,10.17,1.37,2.17,3.24,4.02,5.4,5.37Z" fill="#002346"></path>
  </g>
  <g>
    <path d="M555.62,638.85h-19.76V43.47c0-3.21,19.76-3.21,19.76,0V638.85Z" fill="#fff"></path>
    <path d="M556.12,639.35h-20.76V43.47c0-2.77,8.65-2.91,10.38-2.91s10.38,.14,10.38,2.91V639.35Zm-19.76-1h18.76V43.47c0-.8-3.26-1.91-9.38-1.91s-9.38,1.11-9.38,1.91V638.35Z" fill="#002346"></path>
  </g>
  <rect x="447.8" y="-8.07" width="197.25" height="319.14" rx="20.56" ry="20.56" transform="translate(354.85 685.19) rotate(-85.75)" fill="#fff"></rect>
  <g>
    <path d="M679.27,262.82h-1.72l-277.25-20.56c-12.71-1-22.23-12.07-21.32-24.78l11.55-155.69c.97-12.73,12.05-22.28,24.78-21.37l277.25,20.58c12.72,.99,22.26,12.05,21.36,24.78l-11.59,155.67c-.92,12.06-10.96,21.39-23.05,21.42v-.05ZM413.56,45.39c-9.43,.02-17.25,7.31-17.92,16.72l-11.59,155.7c-.68,9.85,6.7,18.41,16.54,19.19l277.25,20.56c9.89,.74,18.51-6.67,19.28-16.56l11.59-155.72c.73-9.91-6.7-18.54-16.61-19.28l-277.25-20.56c-.38-.04-.87-.05-1.29-.05Z" fill="#f69074"></path>
    <path d="M678.86,263.37v-.05h-1.32l-277.29-20.56c-12.93-1.02-22.7-12.38-21.78-25.31l11.55-155.69c.99-12.96,12.34-22.74,25.31-21.83l277.25,20.58c12.95,1,22.74,12.36,21.82,25.31l-11.59,155.67c-.93,12.24-11.28,21.85-23.55,21.88h-.41Zm.4-1.05l.42,.04c11.57-.24,21.26-9.37,22.14-20.95l11.59-155.67c.88-12.41-8.5-23.28-20.9-24.25l-277.25-20.58c-12.41-.89-23.29,8.5-24.24,20.91l-11.55,155.69c-.88,12.39,8.47,23.27,20.86,24.25l277.25,20.56h1.68Zm-.09-4.21c-.46,0-.92-.02-1.38-.05l-277.25-20.56c-10.07-.79-17.7-9.64-17-19.72l11.59-155.7c.69-9.62,8.78-17.17,18.42-17.18h0c.57,0,1.01,.02,1.34,.05l277.23,20.56c10.17,.76,17.82,9.65,17.07,19.82l-11.59,155.72c-.75,9.68-8.88,17.07-18.44,17.07ZM413.56,45.89c-9.12,.02-16.77,7.16-17.42,16.25l-11.59,155.7c-.66,9.53,6.55,17.9,16.08,18.65l277.25,20.56c9.59,.74,18-6.51,18.74-16.1l11.59-155.72c.71-9.62-6.53-18.03-16.15-18.74l-277.25-20.56c-.31-.03-.73-.05-1.25-.05h0Z" fill="#002346"></path>
  </g>
  <path d="M488.74,125.6l-34.82-2.6,1.16-15.71,37.9-38.82,16.67,1.23-3.14,42.3,8.56,.65-1.09,14.82-8.57-.64-1,12.87-16.66-1.25,.99-12.85Zm1.11-14.84l1.56-21.66-20,20.29,18.44,1.37Z" fill="#f69074"></path>
  <path d="M521.64,106.1c.98-13.09,4.04-22.04,9.18-26.85s12.53-6.9,22.16-6.25c3.89,.18,7.71,1.05,11.29,2.57,2.62,1.19,4.98,2.89,6.94,5,1.63,1.82,2.98,3.88,4,6.1,.92,2.31,1.57,4.72,1.92,7.18,.91,5.35,1.16,10.78,.73,16.19-.94,12.5-3.73,21.48-8.38,26.94-4.65,5.46-12.15,7.8-22.5,7.02-4.85-.16-9.59-1.46-13.83-3.81-3.46-2.14-6.28-5.17-8.17-8.77-1.68-3.34-2.73-6.97-3.1-10.69-.59-4.86-.67-9.76-.24-14.63Zm19,1.44c-.67,8.77-.33,14.82,1,18.15,1.3,3.3,3.43,5.14,6.38,5.31,1.87,.13,3.72-.49,5.14-1.72,1.78-1.68,3.04-3.84,3.61-6.22,1.14-4.49,1.81-9.08,2-13.71,.67-9.13,.33-15.32-1-18.59-.9-2.95-3.53-5.03-6.61-5.24-3.09-.29-6.01,1.45-7.22,4.3-1.59,3.15-2.7,9.06-3.35,17.72h.05Z" fill="#f69074"></path>
  <path d="M605.36,98.1l-17.84-4.58c1.6-5.22,5.02-9.69,9.65-12.59,4.5-2.77,10.66-3.86,18.49-3.26,8.98,.67,15.35,2.83,19.11,6.48,3.66,3.32,5.56,8.15,5.14,13.07-.17,2.87-1.22,5.63-3,7.89-2.11,2.53-4.8,4.51-7.83,5.79,2.1,.62,4.1,1.55,5.92,2.76,2.14,1.53,3.84,3.6,4.92,6,1.14,2.64,1.58,5.52,1.29,8.38-.36,4.03-1.78,7.9-4.1,11.22-2.39,3.5-5.78,6.19-9.73,7.74-5.04,1.81-10.44,2.44-15.76,1.83-5.04-.18-10-1.29-14.64-3.27-3.37-1.63-6.27-4.08-8.43-7.13-2.25-3.34-3.81-7.11-4.57-11.07l19.3-1.11c.12,2.98,1.13,5.86,2.91,8.26,3.39,3.44,8.9,3.59,12.47,.34,1.95-1.95,3.06-4.58,3.12-7.33,.39-2.68-.3-5.41-1.92-7.59-1.61-1.93-3.98-3.07-6.49-3.12-2.11-.06-4.22,.16-6.27,.65l2-13.59c.81,.2,1.64,.34,2.47,.43,2.32,.24,4.64-.46,6.44-1.94,1.73-1.31,2.8-3.31,2.93-5.48,.22-1.84-.31-3.7-1.49-5.14-1.3-1.38-3.1-2.18-5-2.21-2.03-.21-4.06,.41-5.64,1.71-1.85,1.86-3.05,4.27-3.45,6.86Z" fill="#f69074"></path>
  <path d="M462.4,152.61l26.59,2-.51,6.86-16.64-1.23-.39,5.14,15.42,1.16-.5,6.55-15.39-1.09-.46,6.32,17.13,1.29-.53,7.26-27.07-2,2.35-32.26Z" fill="#f69074"></path>
  <path d="M492.56,187.2l2.4-32.11,16.53,1.22c2.39,.09,4.74,.54,7,1.32,1.56,.63,2.86,1.76,3.7,3.22,1.62,3.11,1.47,6.85-.38,9.83-.88,1.25-2.06,2.25-3.43,2.92-1.13,.52-2.34,.85-3.58,1,1.7,.49,3.14,1.63,4,3.18,.48,.66,.9,1.36,1.25,2.1l4.11,9.66-11.22-.84-4.58-10.28c-.35-.97-.9-1.86-1.61-2.61-.67-.54-1.5-.87-2.36-.92h-.87l-1,13-9.96-.69Zm11.42-18.37l4.18,.31c.89,0,1.78-.07,2.66-.24,.66-.07,1.27-.38,1.71-.87,.45-.51,.71-1.16,.76-1.84,.12-.9-.18-1.8-.81-2.45-1.06-.75-2.33-1.14-3.63-1.11l-4.37-.33-.5,6.53Z" fill="#f69074"></path>
  <path d="M527.39,189.74l2.39-32.11,16.55,1.23c2.38,.09,4.74,.53,7,1.3,1.56,.63,2.87,1.76,3.71,3.22,2.55,4.34,1.1,9.92-3.23,12.47,0,0-.01,0-.02,0-.16,.1-.33,.19-.5,.27-1.13,.52-2.34,.86-3.58,1,.89,.34,1.73,.8,2.5,1.37,.54,.56,1.03,1.17,1.46,1.82,.48,.65,.9,1.35,1.23,2.09l4.11,9.67-11.2-.83-4.62-10.25c-.35-.97-.9-1.85-1.61-2.6-.67-.56-1.51-.88-2.38-.93h-.87l-1,13-9.94-.73Zm11.4-18.35l4.18,.3c.89,0,1.78-.08,2.66-.24,.66-.06,1.28-.38,1.71-.89,.46-.5,.73-1.14,.77-1.81,.12-.9-.17-1.81-.8-2.47-1.06-.75-2.35-1.14-3.65-1.1l-4.27-.25-.6,6.46Z" fill="#f69074"></path>
  <path d="M561.41,176.15c-.22-8.42,6.43-15.42,14.85-15.64h0c1-.02,2.01,.05,3,.22,5.33,.39,9.33,2.13,12,5.22,2.79,3.49,4.03,7.96,3.43,12.39-.11,3.2-1,6.32-2.59,9.09-1.42,2.26-3.46,4.04-5.89,5.14-2.85,1.27-5.98,1.78-9.08,1.49-3.1-.12-6.14-.94-8.88-2.4-2.34-1.39-4.21-3.45-5.36-5.91-1.35-3.01-1.87-6.33-1.48-9.6Zm9.92,.77c-.4,2.45,.05,4.97,1.28,7.13,2.39,2.94,6.71,3.39,9.65,1,0,0,0,0,0,0l.22-.19c1.27-1.3,2.03-3.74,2.3-7.33,.39-2.37-.08-4.81-1.34-6.86-1.15-1.49-2.91-2.39-4.79-2.45-1.84-.23-3.69,.4-5,1.72-1.57,1.98-2.39,4.45-2.32,6.98Z" fill="#f69074"></path>
  <path d="M598.98,195.07l2.38-32.13,16.54,1.23c2.39,.1,4.74,.54,7,1.32,1.54,.63,2.82,1.76,3.63,3.21,.92,1.61,1.31,3.47,1.12,5.31-.08,1.62-.6,3.19-1.49,4.54-.88,1.24-2.06,2.24-3.43,2.89-1.13,.52-2.34,.86-3.58,1,1.69,.51,3.12,1.64,4,3.17,.48,.66,.89,1.37,1.23,2.11l4.11,9.67-11.2-.84-4.58-10.29c-.36-.97-.91-1.85-1.61-2.6-.68-.55-1.51-.87-2.38-.93h-.88l-1,13-9.86-.66Zm11.38-18.37l4.18,.31c.9,0,1.79-.08,2.67-.24,.66-.07,1.28-.39,1.72-.89,.46-.5,.73-1.14,.77-1.82,.11-.9-.18-1.8-.81-2.45-1.06-.77-2.34-1.16-3.65-1.11l-4.35-.33-.53,6.53Z" fill="#f69074"></path>
  <path d="M429.29,220.34l2.18-29.3,19.77,1.47-.25,3.43-15.91-1.18-.66,9.06,13.7,1-.25,3.43-13.71-1-1,13.32-3.87-.23Z" fill="#002346"></path>
  <path d="M453.98,207.77c.07-4.2,1.78-8.2,4.77-11.14,2.82-2.59,6.62-3.84,10.42-3.43,2.57,.16,5.06,1.02,7.18,2.48,2.05,1.44,3.63,3.45,4.55,5.78,.99,2.54,1.38,5.28,1.14,8-.17,2.76-.99,5.45-2.4,7.83-1.27,2.2-3.19,3.94-5.5,5-2.27,1.05-4.76,1.49-7.25,1.29-2.61-.15-5.12-1.04-7.25-2.55-2.05-1.46-3.62-3.49-4.52-5.83-.94-2.36-1.33-4.9-1.14-7.43Zm4,.36c-.4,3.03,.4,6.1,2.22,8.56,3.51,4.2,9.76,4.8,14,1.33l.33-.28c2.19-2.32,3.42-5.38,3.42-8.57,.21-2.14-.03-4.3-.73-6.34-.62-1.75-1.74-3.28-3.22-4.39-1.5-1.1-3.28-1.75-5.14-1.86-2.64-.24-5.28,.59-7.3,2.31-2.06,1.82-3.28,4.9-3.6,9.3l.02-.06Z" fill="#002346"></path>
  <path d="M485.98,224.56l2.2-29.3,13,1c2.02,.06,4.02,.48,5.89,1.24,1.33,.63,2.4,1.68,3.05,3,.7,1.39,1,2.95,.86,4.5-.09,1.96-.96,3.81-2.41,5.14-1.83,1.45-4.1,2.24-6.43,2.24,.81,.44,1.56,.99,2.23,1.63,1.14,1.26,2.12,2.66,2.93,4.15l4.5,8.36-4.88-.38-3.43-6.37c-1-1.85-1.83-3.26-2.5-4.25-.48-.8-1.1-1.51-1.81-2.11-.52-.39-1.1-.7-1.72-.91-.7-.16-1.42-.26-2.14-.31l-4.51-.32-1,13-3.83-.31Zm5.14-16.08l8.33,.62c1.4,.16,2.82,.08,4.2-.24,.96-.25,1.81-.81,2.42-1.59,.58-.74,.93-1.63,1-2.57,.13-1.3-.33-2.6-1.25-3.53-1.3-1.12-2.96-1.73-4.68-1.72l-9.27-.7-.75,9.73Z" fill="#002346"></path>
  <path d="M515.4,226.75l2.17-29.3,11,.8c1.84,.07,3.65,.52,5.31,1.31,1.29,.67,2.33,1.71,3,3,.66,1.23,.96,2.61,.86,4-.09,1.24-.54,2.43-1.29,3.43-.83,1.11-1.97,1.96-3.27,2.45,1.59,.55,2.95,1.6,3.89,3,.86,1.35,1.24,2.95,1.09,4.54-.08,1.33-.47,2.62-1.14,3.77-.58,1.03-1.39,1.91-2.37,2.57-1.01,.62-2.14,1.03-3.31,1.2-1.57,.25-3.17,.29-4.76,.14l-11.18-.91Zm4.13-3.17l7.3,.55c.88,.06,1.77,.06,2.65,0,.8-.07,1.58-.29,2.3-.63,.65-.37,1.2-.89,1.59-1.53,1-1.62,1.05-3.66,.14-5.33-.5-.86-1.28-1.52-2.21-1.88-1.37-.48-2.8-.75-4.25-.81l-6.77-.5-.75,10.13Zm1-13.54l6.34,.48c1.23,.16,2.49,.16,3.72,0,.9-.15,1.73-.61,2.33-1.3,.58-.71,.91-1.59,.94-2.5,.09-.9-.09-1.81-.5-2.62-.41-.78-1.08-1.39-1.9-1.72-1.43-.44-2.92-.69-4.42-.73l-5.86-.45-.65,8.84Z" fill="#002346"></path>
  <path d="M543.47,228.84l2.17-29.3,3.89,.29-2.19,29.3-3.87-.29Z" fill="#002346"></path>
  <path d="M554.18,229.63l2.19-29.3,10.09,.75c1.74,.09,3.46,.36,5.14,.81,1.56,.45,2.99,1.28,4.15,2.41,1.47,1.46,2.54,3.28,3.1,5.28,.63,2.28,.84,4.65,.62,7-.11,2-.52,3.98-1.22,5.86-.51,1.51-1.28,2.91-2.27,4.16-.8,.99-1.77,1.82-2.86,2.46-1.12,.62-2.35,1.03-3.62,1.22-1.57,.23-3.16,.28-4.74,.14l-10.58-.79Zm4.14-3.15l6.26,.46c1.53,.16,3.08,.09,4.59-.21,1-.22,1.94-.67,2.74-1.32,1.07-.98,1.9-2.2,2.42-3.56,.69-1.79,1.1-3.67,1.2-5.59,.32-2.44-.03-4.92-1-7.18-.71-1.54-1.92-2.8-3.42-3.58-1.6-.6-3.29-.94-5-1l-6.15-.46-1.64,22.44Z" fill="#002346"></path>
  <path d="M583.75,231.84l2.18-29.3,10.09,.74c1.74,.08,3.46,.36,5.14,.82,1.56,.45,2.97,1.28,4.13,2.41,1.48,1.45,2.55,3.27,3.1,5.26,.63,2.28,.85,4.65,.64,7-.13,2-.54,3.97-1.22,5.86-.54,1.5-1.33,2.9-2.33,4.13-.8,.98-1.77,1.81-2.86,2.45-1.12,.61-2.34,1.02-3.6,1.21-1.57,.23-3.17,.29-4.75,.16l-10.52-.74Zm4.13-3.17l6.26,.46c1.53,.16,3.08,.09,4.59-.2,1-.22,1.94-.67,2.74-1.32,1.07-.98,1.9-2.19,2.42-3.55,.69-1.79,1.09-3.68,1.2-5.59,.32-2.44-.03-4.91-1-7.17-.7-1.55-1.91-2.81-3.42-3.59-1.6-.61-3.29-.95-5-1l-6.15-.47-1.64,22.43Z" fill="#002346"></path>
  <path d="M613.4,234l2.17-29.3,21.18,1.58-.25,3.43-17.31-1.29-.67,9,16.21,1.2-.26,3.43-16.21-1.22-.73,10,18,1.36-.26,3.42-21.87-1.61Z" fill="#002346"></path>
  <path d="M640.57,236.06l2.18-29.31,4,.3,13.71,24.16,1.71-23,3.72,.28-2.2,29.32-4-.31-13.71-24.18-1.71,23-3.7-.26Z" fill="#002346"></path>
  <g>
    <polygon points="410.67 655.79 365.8 655.79 398.41 396.74 443.29 396.74 410.67 655.79" fill="#f69074"></polygon>
    <path d="M411.11,656.29h-45.88l32.74-260.05h45.89l-32.75,260.05Zm-44.74-1h43.86l32.49-258.05h-43.87l-32.48,258.05Z" fill="#002346"></path>
  </g>
  <g>
    <polygon points="361.79 655.79 365.8 655.79 398.41 396.74 394.4 396.74 361.79 655.79" fill="#fff"></polygon>
    <path d="M366.24,656.29h-5.02l32.74-260.05h5.02l-32.74,260.05Zm-3.88-1h3l32.48-258.05h-3l-32.48,258.05Z" fill="#002346"></path>
  </g>
  <g>
    <polygon points="577.99 655.79 533.13 655.79 565.74 396.74 610.62 396.74 577.99 655.79" fill="#f69074"></polygon>
    <path d="M578.43,656.29h-45.87l32.74-260.05h45.89l-32.76,260.05Zm-44.73-1h43.85l32.5-258.05h-43.87l-32.48,258.05Z" fill="#002346"></path>
  </g>
  <g>
    <polygon points="529.11 655.79 533.13 655.79 565.74 396.74 561.73 396.74 529.11 655.79" fill="#fff"></polygon>
    <path d="M533.57,656.29h-5.03l32.75-260.05h5.02l-32.74,260.05Zm-3.89-1h3.01l32.48-258.05h-3l-32.49,258.05Z" fill="#002346"></path>
  </g>
  <g>
    <polygon points="452.2 624.97 614.92 624.97 607.83 568.57 445.11 568.57 452.2 624.97" fill="#f69074"></polygon>
    <path d="M615.48,625.47h-163.73l-7.22-57.4h163.73l7.22,57.4Zm-162.85-1h161.71l-6.96-55.4h-161.71l6.96,55.4Z" fill="#002346"></path>
  </g>
  <polygon points="452.2 624.97 449.55 624.97 442.43 568.57 445.11 568.57 452.2 624.97" fill="#263238"></polygon>
  <g>
    <polygon points="605.96 571.04 612.44 622.5 602.83 622.5 577 571.04 605.96 571.04" fill="#fff"></polygon>
    <path d="M613,623h-10.49l-26.33-52.46h30.21l6.61,52.46Zm-9.87-1h8.73l-6.35-50.46h-27.71l25.33,50.46Z" fill="#002346"></path>
  </g>
  <g>
    <polygon points="560.6 571.04 586.43 622.5 551.13 622.5 525.3 571.04 560.6 571.04" fill="#fff"></polygon>
    <path d="M587.24,623h-36.42l-26.33-52.46h36.42l26.33,52.46Zm-35.8-1h34.18l-25.33-50.46h-34.18l25.33,50.46Z" fill="#002346"></path>
  </g>
  <g>
    <polygon points="508.9 571.04 534.73 622.5 499.41 622.5 473.61 571.04 508.9 571.04" fill="#fff"></polygon>
    <path d="M535.54,623h-36.44l-.14-.28-26.16-52.18h36.41l26.33,52.46Zm-35.82-1h34.2l-25.33-50.46h-34.17l25.3,50.46Z" fill="#002346"></path>
  </g>
  <g>
    <polygon points="457.22 571.04 483.03 622.5 454.07 622.5 447.59 571.04 457.22 571.04" fill="#fff"></polygon>
    <path d="M483.84,623h-30.21l-6.61-52.46h10.51l26.31,52.46Zm-29.33-1h27.71l-25.31-50.46h-8.75l6.35,50.46Z" fill="#002346"></path>
  </g>
  <g>
    <polygon points="599.35 655.79 644.23 655.79 611.6 396.74 566.74 396.74 599.35 655.79" fill="#f69074"></polygon>
    <path d="M644.79,656.29h-45.89l-.06-.44-32.68-259.61h45.87l32.76,260.05Zm-45.01-1h43.87l-32.5-258.05h-43.85l32.48,258.05Z" fill="#002346"></path>
  </g>
  <g opacity=".2">
    <polygon points="581.27 512.15 628.48 530.7 614.92 423.13 570.04 423.13 581.27 512.15"></polygon>
  </g>
  <g>
    <polygon points="599.35 655.79 595.34 655.79 562.73 396.74 566.74 396.74 599.35 655.79" fill="#fff"></polygon>
    <path d="M599.91,656.29h-5.02l-.06-.44-32.68-259.61h5.02l.06,.44,32.68,259.61Zm-4.14-1h3l-32.48-258.05h-3l32.48,258.05Z" fill="#002346"></path>
  </g>
  <g>
    <polygon points="432.02 655.79 476.9 655.79 444.29 396.74 399.41 396.74 432.02 655.79" fill="#f69074"></polygon>
    <path d="M477.46,656.29h-45.89l-.06-.44-32.68-259.61h45.89l.06,.44,32.68,259.61Zm-45.01-1h43.87l-32.48-258.05h-43.87l32.48,258.05Z" fill="#002346"></path>
  </g>
  <g>
    <polygon points="432.02 655.79 428.01 655.79 395.4 396.74 399.41 396.74 432.02 655.79" fill="#fff"></polygon>
    <path d="M432.58,656.29h-5.02l-.06-.44-32.68-259.61h5.02l.06,.44,32.68,259.61Zm-4.14-1h3l-32.48-258.05h-3l32.48,258.05Z" fill="#002346"></path>
  </g>
  <g>
    <polygon points="396.01 500.2 641.04 500.2 630.35 415.3 385.32 415.3 396.01 500.2" fill="#f69074"></polygon>
    <path d="M641.6,500.7h-246.04l-10.82-85.9h246.04l10.82,85.9Zm-245.16-1h244.02l-10.56-83.9h-244.02l10.56,83.9Z" fill="#002346"></path>
  </g>
  <polygon points="396.01 500.2 392 500.2 381.31 415.3 385.32 415.3 396.01 500.2" fill="#263238"></polygon>
  <g>
    <polygon points="627.53 419 637.3 496.48 622.82 496.48 583.94 419 627.53 419" fill="#fff"></polygon>
    <path d="M637.86,496.98h-15.36l-39.38-78.48h44.84l9.9,78.48Zm-14.74-1h13.6l-9.64-76.48h-42.34l38.38,76.48Z" fill="#002346"></path>
  </g>
  <g>
    <polygon points="559.25 419 598.13 496.48 544.96 496.48 506.09 419 559.25 419" fill="#fff"></polygon>
    <path d="M598.94,496.98h-54.29l-39.37-78.48h54.28l39.38,78.48Zm-53.67-1h52.05l-38.38-76.48h-52.04l38.37,76.48Z" fill="#002346"></path>
  </g>
  <g>
    <polygon points="481.4 419 520.28 496.48 467.11 496.48 428.23 419 481.4 419" fill="#fff"></polygon>
    <path d="M521.09,496.98h-54.29l-39.38-78.48h54.29l39.38,78.48Zm-53.67-1h52.05l-38.38-76.48h-52.05l38.38,76.48Z" fill="#002346"></path>
  </g>
  <g>
    <polygon points="403.57 419 442.43 496.48 398.82 496.48 389.07 419 403.57 419" fill="#fff"></polygon>
    <path d="M443.24,496.98h-44.86l-9.88-78.48h15.38l39.36,78.48Zm-43.98-1h42.36l-38.36-76.48h-13.62l9.62,76.48Z" fill="#002346"></path>
  </g>
  <rect x="634.57" y="645.6" width="122.35" height="10.24" fill="#002346"></rect>
  <g>
    <polygon points="736.27 645.39 655.22 645.39 686.99 472.57 704.5 472.57 736.27 645.39" fill="#f69074"></polygon>
    <path d="M736.87,645.89h-82.25l.11-.59,31.85-173.23h18.34l31.95,173.82Zm-81.05-1h79.85l-31.59-171.82h-16.68l-31.59,171.82Z" fill="#002346"></path>
  </g>
  <g>
    <polygon points="675.19 536.81 716.32 536.81 712.37 515.4 679.12 515.4 675.19 536.81" fill="#fff"></polygon>
    <path d="M716.92,537.31h-42.33l4.11-22.41h34.08l4.13,22.41Zm-41.13-1h39.93l-3.77-20.41h-32.42l-3.75,20.41Z" fill="#002346"></path>
  </g>
  <path d="M168.02,302.73c-3.38,0-13.55-.66-20.23-8.18-.18-.21-.17-.52,.04-.71,.21-.18,.52-.17,.71,.04,7.74,8.7,20.41,7.83,20.54,7.82,.27-.02,.52,.18,.54,.46s-.18,.52-.46,.54c-.02,0-.43,.03-1.13,.03Z" fill="#002346"></path>
  <path d="M317.17,222.72c-.19,0-.38-.11-.46-.3-2.85-6.66-8.98-7.42-9.04-7.43-.23-.03-.41-.21-.44-.44l-1.32-11.68c-.03-.27,.17-.52,.44-.55,.28-.03,.52,.17,.55,.44l1.28,11.3c1.5,.28,6.77,1.71,9.45,7.96,.11,.25,0,.55-.26,.66-.06,.03-.13,.04-.2,.04Z" fill="#002346"></path>
  <path d="M313.28,198.2c-.28,0-.5-.22-.5-.5v-19.33c0-.28,.22-.5,.5-.5s.5,.22,.5,.5v19.33c0,.28-.22,.5-.5,.5Z" fill="#002346"></path>
  <path d="M319.14,198.2c-.28,0-.5-.22-.5-.5v-18.35c0-.28,.22-.5,.5-.5s.5,.22,.5,.5v18.35c0,.28-.22,.5-.5,.5Z" fill="#002346"></path>
  <path d="M325.99,198.22c-.28,0-.5-.22-.5-.5v-7.61c0-.28,.22-.5,.5-.5s.5,.22,.5,.5v7.61c0,.28-.22,.5-.5,.5Z" fill="#002346"></path>
  <path d="M262.14,335.49c-.27,0-.5-.22-.5-.5l-.66-76.49c0-.28,.22-.5,.5-.5h0c.27,0,.5,.22,.5,.5l.66,76.49c0,.28-.22,.5-.5,.5h0Z" fill="#002346"></path>
  <path d="M262.45,421.25c-.28,0-.5-.22-.5-.5v-48.89c0-.28,.22-.5,.5-.5s.5,.22,.5,.5v48.89c0,.28-.22,.5-.5,.5Z" fill="#002346"></path>
  <path d="M262.14,393.15c-.27,0-.5-.22-.5-.5,0-.28,.22-.5,.5-.5,2.64-.01,4.84-.95,6.55-2.76,4.89-5.2,4.33-15.99,4.33-16.1-.02-.28,.19-.51,.47-.53,.27-.02,.51,.2,.53,.47,.03,.46,.58,11.33-4.6,16.84-1.9,2.03-4.35,3.06-7.27,3.08h0Z" fill="#002346"></path>
  <path d="M246.86,632.43c-.09,0-.18-.02-.26-.07-.05-.03-5.44-3.16-15.71-.95-.27,.06-.54-.11-.59-.38-.06-.27,.11-.54,.38-.59,10.69-2.31,16.2,.93,16.44,1.07,.24,.14,.31,.45,.17,.69-.09,.16-.26,.24-.43,.24Z" fill="#002346"></path>
  <path d="M249.42,218.68c-.14,0-.27-.06-.37-.16l-14.33-15.4c-.19-.2-.18-.52,.03-.71,.2-.19,.52-.18,.71,.03l13.94,14.99,6.81-8.13c.11-.12,.27-.18,.43-.18,.16,.01,.31,.11,.39,.25l4.49,7.92,15.27-13.9c.2-.18,.52-.17,.71,.03,.19,.2,.17,.52-.03,.71l-15.73,14.32c-.11,.1-.27,.15-.42,.12-.15-.02-.28-.12-.36-.25l-4.44-7.83-6.71,8.01c-.09,.11-.23,.17-.37,.18h-.01Z" fill="#002346"></path>
  <path d="M719.78,619.69c-.24,0-.46-.18-.49-.42l-19.61-125.98c-.04-.27,.14-.53,.42-.57,.28-.04,.53,.14,.57,.42l19.61,125.98c.04,.27-.14,.53-.42,.57-.03,0-.05,0-.08,0Z" fill="#002346"></path>
</svg>
